/* XPM */
static char * close_unfocus_xpm[] = {
"23 23 29 1",
" 	c None",
".	c #2E2E2E",
"+	c #454545",
"@	c #606060",
"#	c #5F5F5F",
"$	c #5E5E5E",
"%	c #646464",
"&	c #636363",
"*	c #626262",
"=	c #000000",
"-	c #2A2A2A",
";	c #666666",
">	c #2D2D2D",
",	c #6A6A6A",
"'	c #828282",
")	c #555555",
"!	c #6E6E6E",
"~	c #6F6F6F",
"{	c #6B6B6B",
"]	c #404040",
"^	c #D2D2D2",
"/	c #A0A0A0",
"(	c #6D6D6D",
"_	c #3D3D3D",
":	c #686868",
"<	c #5A5A5A",
"[	c #1D1D1D",
"}	c #363636",
"|	c #222222",
".......................",
"+++++++++++++++++++++++",
"@@@@@@@###########$$$$$",
"%%%%%%%&&&&&&&&&&&*****",
"==================-;;;;",
"++++++++++++++++++>,,,,",
"'''''''''''''''''')!!!!",
"~~~~~~~~~~~~~~~~~~+~~~~",
"{{{{{{{{{{{{{{{{{{]~~~~",
"%%%%%^^/(/^^%%%%%%_~~~~",
"$$$$$^^^/^^^$$$$$$_~~~~",
"$$$$$:^^^^^:$$$$$$_<<<<",
"[[[[[}^^^^^}[[[[[[=||||",
"[[[[[^^^/^^^[[[[[[=====",
"[[[[[^^/}/^^[[[[[[=====",
"[[[[[[[[[[[[[[[[[[=====",
"[[[[[[[[[[[[[[[[[[=====",
"[[[[[[[[[[[[[[[[[[=====",
">>>>>>>>>>>>>>>>>>[====",
"&&&&&&&&&&&&&&&&&&)====",
"=======================",
".......................",
"......................."};
