/* XPM */
static char * close_pressed_xpm[] = {
"23 23 28 1",
" 	c None",
".	c #2E2E2E",
"+	c #454545",
"@	c #606060",
"#	c #5F5F5F",
"$	c #5E5E5E",
"%	c #646464",
"&	c #636363",
"*	c #626262",
"=	c #000000",
"-	c #666666",
";	c #6A6A6A",
">	c #6E6E6E",
",	c #6F6F6F",
"'	c #404040",
")	c #595959",
"!	c #CECECE",
"~	c #959595",
"{	c #3D3D3D",
"]	c #545454",
"^	c #5A5A5A",
"/	c #191919",
"(	c #0F0F0F",
"_	c #222222",
":	c #181818",
"<	c #0C0C0C",
"[	c #1D1D1D",
"}	c #555555",
".......................",
"+++++++++++++++++++++++",
"@@@@@@@###########$$$$$",
"%%%%%%%&&&&&&&&&&&*****",
"===================----",
"+++++++++++++++++++;;;;",
"+++++++++++++++++++>>>>",
"&&&&&&&&&&&&&&&&&++,,,,",
"#################+',,,,",
")))))!!~)~!!)))))+{,,,,",
"]]]]]!!!~!!!]]]]]+{,,,,",
"]]]]]]!!!!!]]]]]]+{^^^^",
"//////!!!!!//////(=____",
"/////!!!~!!!/////(=====",
"/////!!~/~!!/////(=====",
"/////////////////(=====",
"/////////////////(=====",
"/////////////////(=====",
":::::::::::::::::<[====",
"&&&&&&&&&&&&&&&&&&}====",
"=======================",
".......................",
"......................."};
