/* XPM */
static char * hilite_xpm[] = {
"23 23 35 1",
" 	c None",
".	c #2E2E2E",
"+	c #454545",
"@	c #606060",
"#	c #5F5F5F",
"$	c #5E5E5E",
"%	c #484848",
"&	c #474747",
"*	c #464646",
"=	c #444444",
"-	c #434343",
";	c #414141",
">	c #404040",
",	c #3E3E3E",
"'	c #3D3D3D",
")	c #3B3B3B",
"!	c #3A3A3A",
"~	c #383838",
"{	c #373737",
"]	c #313131",
"^	c #303030",
"/	c #272727",
"(	c #262626",
"_	c #1B1B1B",
":	c #1A1A1A",
"<	c #171717",
"[	c #151515",
"}	c #141414",
"|	c #131313",
"1	c #121212",
"2	c #0F0F0F",
"3	c #0E0E0E",
"4	c #111111",
"5	c #101010",
"6	c #2F2F2F",
".......................",
"+++++++++++++++++++++++",
"@@@@@@@###########$$$$$",
"%%%%%%%&&&&&&&&&&&&&&&&",
"&&&&&&*****************",
"*******************++++",
"====-------------------",
";;;;;;;;;;;;;>>>>>>>>>>",
",,'''''''''''''''''''''",
")))))))))))!!!!!!!!!!!!",
"~{{{{{{{{{{{{{{{{{{{{{{",
"]]]]]]]]]]]]]]]]]]]]^^^",
"///////////////////((((",
"______________:::::::::",
"<<<<<<<<<<<<<<<<<<<<<<<",
"[[[[[[[[[[[[[}}}}}}}}}}",
"}}}|||||||||||||||||||1",
"11111111112231111333111",
"11444444444444444444455",
"55555555552222222222222",
"22222222222222222222222",
".................666666",
"......................."};
