/* XPM */
static char * max_pressed_xpm[] = {
"23 23 32 1",
" 	c None",
".	c #2E2E2E",
"+	c #454545",
"@	c #606060",
"#	c #5F5F5F",
"$	c #5E5E5E",
"%	c #646464",
"&	c #636363",
"*	c #626262",
"=	c #000000",
"-	c #101010",
";	c #828282",
">	c #1F1F1F",
",	c #6F6F6F",
"'	c #1A1A1A",
")	c #191919",
"!	c #6A6A6A",
"~	c #6B6B6B",
"{	c #171717",
"]	c #595959",
"^	c #585858",
"/	c #CECECE",
"(	c #161616",
"_	c #545454",
":	c #1D1D1D",
"<	c #060606",
"[	c #0F0F0F",
"}	c #2D2D2D",
"|	c #0A0A0A",
"1	c #181818",
"2	c #0C0C0C",
"3	c #343434",
".......................",
"+++++++++++++++++++++++",
"@@@@@@@###########$$$$$",
"%%%%%%%&&&&&&&&&&&*****",
"=======================",
"+-+++++++++++++++++++-+",
";>+++++++++++++++++++>;",
",'&&&&&&&&&&&&&&&&&&+)!",
"~)##################+{*",
"%{]]^]]]]]/////]]]]]+($",
"$(______/__////_____+($",
"$(______//__///_____+($",
":<))))))///))//)))))[<:",
":<))))))////))/)))))[<:",
":<))))))/////)))))))[=:",
":<))))))))))))))))))[=:",
":<))))))))))))))))))[=:",
":<))))))))))))))))))[<:",
"}|1111111111111111112|}",
"&3&&&&&&&&&&&&&&&&&&&3&",
"=======================",
".......................",
"......................."};
