/* XPM */
static char * max_unfocus_xpm[] = {
"23 23 29 1",
" 	c None",
".	c #2E2E2E",
"+	c #454545",
"@	c #606060",
"#	c #5F5F5F",
"$	c #5E5E5E",
"%	c #646464",
"&	c #636363",
"*	c #626262",
"=	c #000000",
"-	c #101010",
";	c #828282",
">	c #1F1F1F",
",	c #6F6F6F",
"'	c #1A1A1A",
")	c #191919",
"!	c #6A6A6A",
"~	c #6B6B6B",
"{	c #171717",
"]	c #6D6D6D",
"^	c #D2D2D2",
"/	c #161616",
"(	c #686868",
"_	c #1D1D1D",
":	c #060606",
"<	c #363636",
"[	c #2D2D2D",
"}	c #0A0A0A",
"|	c #343434",
".......................",
"+++++++++++++++++++++++",
"@@@@@@@###########$$$$$",
"%%%%%%%&&&&&&&&&&&*****",
"=======================",
"+-+++++++++++++++++++-+",
";>;;;;;;;;;;;;;;;;;;;>;",
",',,,,,,,,,,,,,,,,,,,)!",
"~)~~~~~~~~~~~~~~~~~~~{*",
"%{%%&%%%]]^^^^^%%%%%%/$",
"$/$$$$$$^((^^^^$$$$$$/$",
"$/$$$$$$^^((^^^$$$$$$/$",
"_:______^^^<<^^______:_",
"_:______^^^^<<^______:_",
"_:______^^^^^<<______=_",
"_:___________________=_",
"_:___________________=_",
"_:___________________:_",
"[}[[[[[[[[[[[[[[[[[[[}[",
"&|&&&&&&&&&&&&&&&&&&&|&",
"=======================",
".......................",
"......................."};
