/* XPM */
static char * stuck_xpm[] = {
"23 23 25 1",
" 	c None",
".	c #2E2E2E",
"+	c #454545",
"@	c #5E5E5E",
"#	c #5F5F5F",
"$	c #606060",
"%	c #626262",
"&	c #636363",
"*	c #646464",
"=	c #666666",
"-	c #2A2A2A",
";	c #000000",
">	c #6A6A6A",
",	c #2D2D2D",
"'	c #6E6E6E",
")	c #555555",
"!	c #828282",
"~	c #6F6F6F",
"{	c #404040",
"]	c #6B6B6B",
"^	c #3D3D3D",
"/	c #E7E7E7",
"(	c #5A5A5A",
"_	c #222222",
":	c #1D1D1D",
".......................",
"+++++++++++++++++++++++",
"@@@@@###########$$$$$$$",
"%%%%%&&&&&&&&&&&*******",
"====-;;;;;;;;;;;;;;;;;-",
">>>>,+++++++++++++++++,",
"'''')!!!!!!!!!!!!!!!!!)",
"~~~~+~~~~~~~~~~~~~~~~~+",
"~~~~{]]]]]]]]]]]]]]]]]{",
"~~~~^*****************^",
"~~~~^@@@@@//////@@@@@@^",
"(((&^@@@@@//////@@@@@@^",
"___&;::::://////::::::;",
";;;&;::::://////::::::;",
";;;&;:::::::::::::::::;",
";;;&;:::::::::::::::::;",
";;;&;:::::::::::::::::;",
";;;&;:::::::::::::::::;",
";;;&:,,,,,,,,,,,,,,,,,:",
";;;&&&&&&&&&&&&&&&&&&&)",
";;;;;;;;;;;;;;;;;;;;;;;",
".......................",
"......................."};
