/* XPM */
static char * stuck_pressed_xpm[] = {
"23 23 24 1",
" 	c None",
".	c #2E2E2E",
"+	c #454545",
"@	c #5E5E5E",
"#	c #5F5F5F",
"$	c #606060",
"%	c #626262",
"&	c #636363",
"*	c #646464",
"=	c #666666",
"-	c #000000",
";	c #6A6A6A",
">	c #6E6E6E",
",	c #6F6F6F",
"'	c #404040",
")	c #3D3D3D",
"!	c #595959",
"~	c #545454",
"{	c #CECECE",
"]	c #5A5A5A",
"^	c #222222",
"/	c #191919",
"(	c #1D1D1D",
"_	c #555555",
".......................",
"+++++++++++++++++++++++",
"@@@@@###########$$$$$$$",
"%%%%%&&&&&&&&&&&*******",
"====-------------------",
";;;;+++++++++++++++++++",
">>>>+++++++++++++++++++",
",,,,+&&&&&&&&&&&&&&&&++",
",,,,'################+'",
",,,,)!!!!!!!!!!!!!!!!+)",
",,,,)~~~~~{{{{{{~~~~~+)",
"]]]&)~~~~~{{{{{{~~~~~+)",
"^^^&-/////{{{{{{/////--",
"---&-/////{{{{{{/////--",
"---&-////////////////--",
"---&-////////////////--",
"---&-////////////////--",
"---&-////////////////--",
"---&(-----------------(",
"---&&&&&&&&&&&&&&&&&&&_",
"-----------------------",
".......................",
"......................."};
