/* XPM */
static char * title_xpm[] = {
"23 23 20 1",
" 	c None",
".	c #2E2E2E",
"+	c #454545",
"@	c #606060",
"#	c #5F5F5F",
"$	c #5E5E5E",
"%	c #646464",
"&	c #636363",
"*	c #626262",
"=	c #686868",
"-	c #676767",
";	c #666666",
">	c #6C6C6C",
",	c #6B6B6B",
"'	c #6A6A6A",
")	c #6F6F6F",
"!	c #6E6E6E",
"~	c #5A5A5A",
"{	c #222222",
"]	c #000000",
".......................",
"+++++++++++++++++++++++",
"@@@@@@@###########$$$$$",
"%%%%%%%&&&&&&&&&&&*****",
"======------------;;;;;",
">>>>>>,,,,,,,,,,,''''''",
")))))))))))))))))!!!!!!",
")))))))))))))))))))))))",
")))))))))))))))))))))))",
")))))))))))))))))))))))",
")))))))))))))))))))))))",
"~~~~~~~~~~~~~~~~~~~~~~~",
"{{{{{{{{{{{{{{{{{{{{{{{",
"]]]]]]]]]]]]]]]]]]]]]]]",
"]]]]]]]]]]]]]]]]]]]]]]]",
"]]]]]]]]]]]]]]]]]]]]]]]",
"]]]]]]]]]]]]]]]]]]]]]]]",
"]]]]]]]]]]]]]]]]]]]]]]]",
"]]]]]]]]]]]]]]]]]]]]]]]",
"]]]]]]]]]]]]]]]]]]]]]]]",
"]]]]]]]]]]]]]]]]]]]]]]]",
".......................",
"......................."};
