/* XPM */
static char * toolbar_xpm[] = {
"23 23 18 1",
" 	c None",
".	c #2E2E2E",
"+	c #454545",
"@	c #606060",
"#	c #5F5F5F",
"$	c #5E5E5E",
"%	c #505050",
"&	c #4F4F4F",
"*	c #4E4E4E",
"=	c #535353",
"-	c #525252",
";	c #565656",
">	c #555555",
",	c #595959",
"'	c #585858",
")	c #484848",
"!	c #1B1B1B",
"~	c #000000",
".......................",
"+++++++++++++++++++++++",
"@@@@@@@###########$$$$$",
"%%%%%%%&&&&&&&&&&&*****",
"======-----------------",
";;;;;;;;;;;;;;;;;>>>>>>",
",,,,,,,,,,,,,,,,,''''''",
",,,,,,,,,,,,,,,,,,,,,,,",
",,,,,,,,,,,,,,,,,,,,,,,",
",,,,,,,,,,,,,,,,,,,,,,,",
",,,,,,,,,,,,,,,,,,,,,,,",
")))))))))))))))))))))))",
"!!!!!!!!!!!!!!!!!!!!!!!",
"~~~~~~~~~~~~~~~~~~~~~~~",
"~~~~~~~~~~~~~~~~~~~~~~~",
"~~~~~~~~~~~~~~~~~~~~~~~",
"~~~~~~~~~~~~~~~~~~~~~~~",
"~~~~~~~~~~~~~~~~~~~~~~~",
"~~~~~~~~~~~~~~~~~~~~~~~",
"~~~~~~~~~~~~~~~~~~~~~~~",
"~~~~~~~~~~~~~~~~~~~~~~~",
".......................",
"......................."};
