/* XPM */
static char * toolbar_focused_xpm[] = {
"23 23 17 1",
" 	c None",
".	c #2E2E2E",
"+	c #454545",
"@	c #606060",
"#	c #5F5F5F",
"$	c #5E5E5E",
"%	c #3B3B3B",
"&	c #3A3A3A",
"*	c #393939",
"=	c #3D3D3D",
"-	c #3C3C3C",
";	c #404040",
">	c #3F3F3F",
",	c #414141",
"'	c #343434",
")	c #131313",
"!	c #000000",
".......................",
"+++++++++++++++++++++++",
"@@@@@@@###########$$$$$",
"%%%%%%%&&&&&&&&&&&*****",
"======-----------------",
";;;;;;;;;;;;;;;;;>>>>>>",
",,,,,,,,,,,,,,,,,,,,,,,",
",,,,,,,,,,,,,,,,,,,,,,,",
",,,,,,,,,,,,,,,,,,,,,,,",
",,,,,,,,,,,,,,,,,,,,,,,",
",,,,,,,,,,,,,,,,,,,,,,,",
"'''''''''''''''''''''''",
")))))))))))))))))))))))",
"!!!!!!!!!!!!!!!!!!!!!!!",
"!!!!!!!!!!!!!!!!!!!!!!!",
"!!!!!!!!!!!!!!!!!!!!!!!",
"!!!!!!!!!!!!!!!!!!!!!!!",
"!!!!!!!!!!!!!!!!!!!!!!!",
"!!!!!!!!!!!!!!!!!!!!!!!",
"!!!!!!!!!!!!!!!!!!!!!!!",
"!!!!!!!!!!!!!!!!!!!!!!!",
".......................",
"......................."};
