/* XPM */
static char * minfcs_xpm[] = {
"19 19 5 1",
" 	c None",
".	c #64CBCB",
"+	c #DDDEDE",
"@	c #DDDDDE",
"#	c #63C8C8",
"...................",
"...................",
"...................",
"...................",
"...................",
"...................",
"...................",
"...................",
"...................",
"...................",
"...................",
"...................",
"......++++++++.....",
"......++++@@@@.....",
"...................",
"...................",
"...................",
"###################",
"###################"};
