<?xml version="1.0" encoding="UTF-8" standalone="no"?>
<!-- Created with Inkscape (http://www.inkscape.org/) -->

<svg
   xmlns:dc="http://purl.org/dc/elements/1.1/"
   xmlns:cc="http://creativecommons.org/ns#"
   xmlns:rdf="http://www.w3.org/1999/02/22-rdf-syntax-ns#"
   xmlns:svg="http://www.w3.org/2000/svg"
   xmlns="http://www.w3.org/2000/svg"
   xmlns:sodipodi="http://sodipodi.sourceforge.net/DTD/sodipodi-0.dtd"
   xmlns:inkscape="http://www.inkscape.org/namespaces/inkscape"
   width="243"
   height="233"
   id="svg2989"
   version="1.1"
   inkscape:version="0.48.3.1 r9886"
   sodipodi:docname="star-logo-2.0.png">
  <defs
     id="defs2991" />
  <sodipodi:namedview
     id="base"
     pagecolor="#ffffff"
     bordercolor="#666666"
     borderopacity="1.0"
     inkscape:pageopacity="0.0"
     inkscape:pageshadow="2"
     inkscape:zoom="2.7994505"
     inkscape:cx="5.7433978"
     inkscape:cy="97.657785"
     inkscape:current-layer="layer2"
     showgrid="true"
     inkscape:grid-bbox="true"
     inkscape:document-units="px"
     inkscape:window-width="1920"
     inkscape:window-height="1027"
     inkscape:window-x="0"
     inkscape:window-y="31"
     inkscape:window-maximized="1" />
  <metadata
     id="metadata2994">
    <rdf:RDF>
      <cc:Work
         rdf:about="">
        <dc:format>image/svg+xml</dc:format>
        <dc:type
           rdf:resource="http://purl.org/dc/dcmitype/StillImage" />
        <dc:title></dc:title>
      </cc:Work>
    </rdf:RDF>
  </metadata>
  <g
     inkscape:groupmode="layer"
     id="layer2"
     inkscape:label="Fond"
     sodipodi:insensitive="true">
    <rect
       style="fill:#000000;fill-opacity:1"
       id="rect2996"
       width="243"
       height="233"
       x="2.4024004e-07"
       y="0" />
  </g>
  <g
     inkscape:groupmode="layer"
     inkscape:label="Layer 2"
     id="g2983"
     transform="translate(0,201)"
     sodipodi:insensitive="true">
    <path
       style="fill:#ffffff;fill-opacity:1"
       d="M 146.46936,-1.2316171 C 133.31777,-13.702147 122.11992,-23.9053 121.58526,-23.9053 c -0.53457,0 -5.82048,4.317771 -11.74632,9.59506 C 103.91316,-9.0329522 93.047417,0.651203 85.692898,7.2101054 78.338374,13.769015 71.782858,19.412621 71.125089,19.751477 c -1.120311,0.577127 -1.172275,0.411309 -0.821631,-2.621666 0.205878,-1.780755 1.733885,-16.65828036 3.395582,-33.061162 2.522852,-24.903541 2.877263,-29.907931 2.148346,-30.335791 -1.097262,-0.644055 -6.894328,-1.612949 -34.612078,-5.784821 -23.034091,-3.466951 -31.6213157,-4.900744 -32.1055697,-5.360666 -0.4270172,-0.40556 3.4330557,-2.949743 24.2457417,-15.980369 25.60995,-16.034175 31.892674,-20.196507 32.109636,-21.272882 0.101003,-0.501089 -7.130697,-13.41573 -16.070441,-28.69924 -8.939751,-15.2835 -16.25409,-28.14559 -16.25409,-28.58241 0,-1.13531 0.49559,-0.99293 28.335613,8.14144 21.281078,6.98237 35.803057,11.61737 36.476873,11.6424 0.329579,0.0123 2.393629,-4.86927 11.888719,-28.1145 10.61718,-25.99221 13.65323,-32.9593 14.36266,-32.9593 0.73424,0 2.75769,5.08447 12.75538,32.05216 4.99411,13.47097 9.60928,25.671 10.25595,27.11115 1.12207,2.49882 1.26979,2.59885 3.23287,2.18933 1.1314,-0.23593 14.24099,-4.02781 29.13243,-8.42622 29.58718,-8.73904 33.53226,-9.80295 34.15538,-9.21111 0.45153,0.42866 -3.72119,7.32418 -22.20626,36.69791 -6.58676,10.46668 -11.89387,19.434781 -11.79364,19.929136 0.23513,1.159177 2.90994,3.056105 28.19336,19.993588 23.2871,15.60012 27.36005,18.512098 26.55426,18.985064 -0.86855,0.509782 -6.85969,1.315702 -36.64919,4.929749 -15.35821,1.863271 -28.61325,3.636613 -29.45561,3.940804 -1.46098,0.527505 -1.51574,0.741866 -1.1877,4.648067 0.41827,4.981805 3.27766,45.5923158 3.87569,55.045867 0.24611,3.891414 0.18717,6.801496 -0.13789,6.798792 -0.31249,-0.0025 -11.32859,-10.207901 -24.48021,-22.6784141 l 0,0 z"
       id="path2987"
       inkscape:connector-curvature="0" />
  </g>
  <g
     id="layer1"
     inkscape:label="Layer 1"
     inkscape:groupmode="layer"
     transform="translate(0,201)"
     sodipodi:insensitive="true">
    <path
       style="fill:#000000;fill-opacity:1"
       d="M 143.88826,-9.8867165 C 132.11242,-21.076438 122.08595,-30.231672 121.60724,-30.231672 c -0.47873,0 -5.21167,3.874313 -10.51758,8.609592 -5.30592,4.735282 -15.035019,13.4248158 -21.620204,19.3100816 C 82.884266,3.5732698 77.014503,8.6372443 76.425542,8.9412915 75.422423,9.4591371 75.375893,9.3103617 75.689857,6.5888892 75.874195,4.9910239 77.242369,-8.3584923 78.730241,-23.07669 c 2.258948,-22.345801 2.576277,-26.836215 1.923609,-27.220124 -0.982476,-0.577916 -6.173132,-1.447293 -30.991411,-5.190701 -20.624563,-3.110856 -28.313503,-4.397405 -28.747102,-4.810082 -0.382348,-0.363909 3.073935,-2.646782 21.709465,-14.339095 22.930974,-14.387368 28.55648,-18.122204 28.75075,-19.088025 0.09043,-0.449613 -6.384778,-12.037853 -14.389366,-25.751663 -8.004588,-13.71378 -14.553794,-25.25486 -14.553794,-25.64682 0,-1.01871 0.443739,-0.89094 25.371508,7.30527 19.054924,6.26524 32.057801,10.4242 32.66114,10.44664 0.29494,0.0116 2.14323,-4.36915 10.64508,-25.22697 9.50654,-23.32265 12.225,-29.57417 12.8602,-29.57417 0.65749,0 2.46921,4.56227 11.42112,28.76021 4.47166,12.08743 8.60404,23.03444 9.18309,24.32667 1.00469,2.24217 1.13694,2.33194 2.8947,1.96449 1.01305,-0.21178 12.75127,-3.61414 26.08495,-7.5608 26.49215,-7.8415 30.02454,-8.79613 30.58249,-8.26509 0.40415,0.38464 -3.33194,6.57195 -19.88333,32.92882 -5.89773,9.39169 -10.64969,17.438709 -10.55996,17.882296 0.2105,1.04013 2.60557,2.74223 25.24416,17.940122 20.85112,13.997908 24.49798,16.610793 23.77648,17.035185 -0.77768,0.457432 -6.14211,1.180573 -32.81541,4.423445 -13.75163,1.671897 -25.62011,3.263116 -26.37437,3.53605 -1.30812,0.473354 -1.35718,0.665666 -1.06344,4.17069 0.37457,4.470134 2.93482,40.9097159 3.47024,49.3923263 0.22039,3.4917281 0.1676,6.1029417 -0.12337,6.1005147 -0.27985,-0.0022 -10.14355,-9.1594914 -21.91941,-20.3492155 l 0,0 z"
       id="path2989"
       inkscape:connector-curvature="0" />
  </g>
</svg>
