<?xml version="1.0" encoding="UTF-8" standalone="no"?>
<!-- Created with Inkscape (http://www.inkscape.org/) -->

<svg
   xmlns:dc="http://purl.org/dc/elements/1.1/"
   xmlns:cc="http://creativecommons.org/ns#"
   xmlns:rdf="http://www.w3.org/1999/02/22-rdf-syntax-ns#"
   xmlns:svg="http://www.w3.org/2000/svg"
   xmlns="http://www.w3.org/2000/svg"
   xmlns:sodipodi="http://sodipodi.sourceforge.net/DTD/sodipodi-0.dtd"
   xmlns:inkscape="http://www.inkscape.org/namespaces/inkscape"
   width="243"
   height="233"
   id="svg2989"
   version="1.1"
   inkscape:version="0.48.3.1 r9886"
   sodipodi:docname="star-logo-2.1.svg">
  <defs
     id="defs2991" />
  <sodipodi:namedview
     id="base"
     pagecolor="#ffffff"
     bordercolor="#666666"
     borderopacity="1.0"
     inkscape:pageopacity="0.0"
     inkscape:pageshadow="2"
     inkscape:zoom="1.9795104"
     inkscape:cx="74.497389"
     inkscape:cy="110.1352"
     inkscape:current-layer="layer1"
     showgrid="true"
     inkscape:grid-bbox="true"
     inkscape:document-units="px"
     inkscape:window-width="1218"
     inkscape:window-height="747"
     inkscape:window-x="0"
     inkscape:window-y="75"
     inkscape:window-maximized="0" />
  <metadata
     id="metadata2994">
    <rdf:RDF>
      <cc:Work
         rdf:about="">
        <dc:format>image/svg+xml</dc:format>
        <dc:type
           rdf:resource="http://purl.org/dc/dcmitype/StillImage" />
        <dc:title />
      </cc:Work>
    </rdf:RDF>
  </metadata>
  <g
     inkscape:groupmode="layer"
     id="layer2"
     inkscape:label="Fond"
     style="opacity:0;display:inline"
     sodipodi:insensitive="true">
    <rect
       style="fill:#000000;fill-opacity:1;stroke-opacity:0"
       id="rect2996"
       width="243"
       height="233"
       x="2.4024004e-07"
       y="0" />
  </g>
  <g
     transform="translate(0,201)"
     inkscape:groupmode="layer"
     inkscape:label="Layer 3"
     id="g3759"
     sodipodi:insensitive="true">
    <path
       inkscape:connector-curvature="0"
       id="path3761"
       d="M 147.42178,2.0132934 C 133.75976,-10.966441 122.1273,-21.586232 121.5719,-21.586232 c -0.55539,0 -6.04643,4.494084 -12.2022,9.986863 -6.15581,5.492782 -17.443247,15.5723755 -25.083211,22.399105 -7.639966,6.82673 -14.449914,12.700786 -15.133211,13.053471 -1.163792,0.600685 -1.217776,0.428111 -0.853523,-2.728714 C 68.513619,19.271017 70.10094,3.7859867 71.82713,-13.286674 74.447903,-39.20712 74.816061,-44.41586 74.058853,-44.861185 72.919009,-45.531551 66.896944,-46.54 38.103416,-50.882239 14.175333,-54.490737 5.2548238,-55.983095 4.7517737,-56.461787 4.3081833,-56.88391 8.3180735,-59.531974 29.938533,-73.094698 c 26.603923,-16.688906 33.130489,-21.021198 33.355876,-22.141524 0.104913,-0.52154 -7.407454,-13.963538 -16.69417,-29.871148 -9.286715,-15.90755 -16.884935,-29.29486 -16.884935,-29.74953 0,-1.18166 0.514815,-1.03345 29.435369,8.47388 22.107029,7.2675 37.19263,12.09176 37.892608,12.1178 0.342179,0.0134 2.486523,-5.06808 12.350149,-29.26252 11.02924,-27.05356 14.18314,-34.30514 14.92007,-34.30514 0.7628,0 2.86471,5.2921 13.25049,33.36098 5.18791,14.02106 9.98217,26.71924 10.65398,28.21819 1.16562,2.60085 1.31905,2.70498 3.35835,2.27874 1.17531,-0.24565 14.79369,-4.19227 30.26309,-8.77028 30.73551,-9.09591 34.83371,-10.20325 35.48102,-9.58726 0.46887,0.44617 -3.86563,7.62326 -23.06813,38.19643 -6.8424,10.89406 -12.35551,20.228364 -12.2514,20.742911 0.24422,1.206519 3.02293,3.180903 29.28762,20.809994 24.19093,16.237145 28.42193,19.268012 27.58487,19.760293 -0.90224,0.530608 -7.12593,1.369429 -38.0716,5.131061 -15.95427,1.93935 -29.72377,3.785114 -30.59886,4.10171 -1.51763,0.549077 -1.57457,0.772152 -1.23377,4.837874 0.43457,5.185219 3.40491,47.4540189 4.02608,57.293588 0.25569,4.050298 0.19445,7.079226 -0.14314,7.07641 -0.32466,-0.0026 -11.76827,-10.62473 -25.43032,-23.6044676 l 0,0 z"
       style="fill:#000000;fill-opacity:1" />
  </g>
  <g
     inkscape:groupmode="layer"
     inkscape:label="Layer 2"
     id="g2983"
     transform="translate(0,201)"
     sodipodi:insensitive="true">
    <path
       style="fill:#ffffff;fill-opacity:1"
       d="m 146.46936,-1.6834278 c -13.15159,-12.4411852 -24.34944,-22.6203292 -24.8841,-22.6203292 -0.53457,0 -5.82048,4.307611 -11.74632,9.572482 C 103.91316,-9.4664054 93.047417,0.19496188 85.692898,6.7384304 78.338374,13.281906 71.782858,18.912232 71.125089,19.250291 c -1.120311,0.575769 -1.172275,0.410341 -0.821631,-2.615497 0.205878,-1.776565 1.733885,-16.61908169 3.395582,-32.983365 2.522852,-24.844941 2.877263,-29.837555 2.148346,-30.264408 -1.097262,-0.642539 -6.894328,-1.609153 -34.612078,-5.771209 C 18.201217,-55.84298 9.6139923,-57.2734 9.1297383,-57.732239 8.7027211,-58.136846 12.562794,-60.675041 33.37548,-73.675005 58.98543,-89.67145 65.268154,-93.823987 65.485116,-94.897829 c 0.101003,-0.49991 -7.130697,-13.384161 -16.070441,-28.631701 -8.939751,-15.24755 -16.25409,-28.07937 -16.25409,-28.51516 0,-1.13264 0.49559,-0.9906 28.335613,8.12229 21.281078,6.96593 35.803057,11.59002 36.476873,11.61499 0.329579,0.0122 2.393629,-4.8578 11.888719,-28.04833 10.61718,-25.93106 13.65323,-32.88175 14.36266,-32.88175 0.73424,0 2.75769,5.0725 12.75538,31.97674 4.99411,13.43927 9.60928,25.61059 10.25595,27.04735 1.12207,2.49294 1.26979,2.59273 3.23287,2.18418 1.1314,-0.23538 14.24099,-4.01833 29.13243,-8.40639 29.58718,-8.71848 33.53226,-9.77989 34.15538,-9.18943 0.45153,0.42765 -3.72119,7.30694 -22.20626,36.61155 -6.58676,10.44205 -11.89387,19.389048 -11.79364,19.882239 0.23513,1.15645 2.90994,3.048914 28.19336,19.946542 23.2871,15.56341 27.36005,18.468537 26.55426,18.940389 -0.86855,0.508583 -6.85969,1.312606 -36.64919,4.91815 -15.35821,1.858886 -28.61325,3.628055 -29.45561,3.93153 -1.46098,0.526264 -1.51574,0.740121 -1.1877,4.63713 0.41827,4.970082 3.27766,45.4850319 3.87569,54.916338 0.24611,3.882257 0.18717,6.785491 -0.13789,6.782793 -0.31249,-0.0025 -11.32859,-10.18388 -24.48021,-22.6250488 l 0,0 z"
       id="path2987"
       inkscape:connector-curvature="0" />
  </g>
  <g
     id="layer1"
     inkscape:label="Layer 1"
     inkscape:groupmode="layer"
     transform="translate(0,201)"
     sodipodi:insensitive="true">
    <path
       style="fill:#000000;fill-opacity:1"
       d="m 137.1601,-30.737521 c -8.85823,-7.932484 -16.40049,-14.422704 -16.7606,-14.422704 -0.36011,0 -3.92039,2.746532 -7.9117,6.10341 -3.99132,3.35688 -11.3099,9.51696 -16.263512,13.689073 -4.953621,4.172114 -9.369072,7.762007 -9.81211,7.977548 -0.754581,0.367105 -0.789584,0.261637 -0.553409,-1.667637 0.138666,-1.13274 1.167857,-10.596319 2.287087,-21.03017 1.699264,-15.841118 1.937971,-19.024409 1.447011,-19.296564 -0.739055,-0.40969 -4.643656,-1.025998 -23.312875,-3.67973 -15.514551,-2.20531 -21.298452,-3.117357 -21.624622,-3.409906 -0.287617,-0.257977 2.312326,-1.876325 16.330654,-10.1651 17.24952,-10.199322 21.48123,-12.846977 21.627368,-13.531654 0.06802,-0.318736 -4.802865,-8.533735 -10.824209,-18.255565 -6.021345,-9.7218 -10.947895,-17.90337 -10.947895,-18.18124 0,-0.72216 0.333795,-0.63159 19.085376,5.17877 14.333811,4.44148 24.115056,7.3898 24.568906,7.4057 0.22186,0.008 1.61222,-3.09732 8.00762,-17.8836 7.15116,-16.5336 9.19609,-20.96536 9.67391,-20.96536 0.49458,0 1.85744,3.23424 8.59139,20.38834 3.36374,8.56888 6.47226,16.3293 6.90786,17.24538 0.75575,1.58949 0.85524,1.65312 2.17748,1.39264 0.76206,-0.15014 9.59198,-2.5621 19.62206,-5.35991 19.92837,-5.55891 22.58556,-6.23564 23.00526,-5.85919 0.30403,0.27268 -2.5064,4.6589 -14.95697,23.3435 -4.43648,6.657848 -8.01107,12.362442 -7.94357,12.676905 0.15835,0.737356 1.96,1.943989 18.98958,12.717898 15.68497,9.923228 18.42828,11.775525 17.88554,12.076381 -0.585,0.324277 -4.62032,0.836917 -24.68495,3.135815 -10.34448,1.18522 -19.27239,2.313249 -19.83977,2.506734 -0.98402,0.335564 -1.02091,0.471897 -0.79996,2.956636 0.28177,3.168914 2.20768,29.001229 2.61044,35.014619 0.16578,2.475314 0.12608,4.326425 -0.0928,4.324704 -0.21052,-0.0016 -7.63035,-6.493237 -16.48859,-14.425723 l 0,0 z"
       id="path2989"
       inkscape:connector-curvature="0" />
  </g>
</svg>
