/* XPM */
static char * closefcs_xpm[] = {
"27 27 6 1",
" 	c None",
".	c #398EE7",
"+	c #DEDEDF",
"@	c #DEDEDE",
"#	c #DDDEDE",
"$	c #DDDDDE",
"...........................",
"...........................",
"...........................",
"...........................",
"...........................",
"...........................",
"...........................",
"...........................",
"........++........@@.......",
"........+++......@@@.......",
".........+++....@@@........",
"..........+++..@@@.........",
"...........+++@@@..........",
"............@@##...........",
"............####...........",
"...........######..........",
"..........###..###.........",
".........###....$##........",
"........###......###.......",
"........##........$$.......",
"...........................",
"...........................",
"...........................",
"...........................",
"...........................",
"...........................",
"..........................."};
