/* XPM */
static char * maximizefcs_xpm[] = {
"27 27 6 1",
" 	c None",
".	c #64CBCB",
"+	c #DEDEDF",
"@	c #DEDEDE",
"#	c #DDDEDE",
"$	c #DDDDDE",
"...........................",
"...........................",
"...........................",
"...........................",
"...........................",
"...........................",
"......+++++++@+++@+@@@.....",
"......+++++++@+++@+@@@.....",
"......+++++++@+++@+@@@.....",
"......@@............##.....",
"......++............++.....",
"......@@............@@.....",
"......##............##.....",
"......##............##.....",
"......++............++.....",
"......@@............@@.....",
"......##............##.....",
"......##............##.....",
"......##............##.....",
"......##............##.....",
"......####+++@+++@####.....",
"......####+++@+++@$$$$.....",
"...........................",
"...........................",
"...........................",
"...........................",
"..........................."};
