/* XPM */
static char * minfcs_xpm[] = {
"27 27 4 1",
" 	c None",
".	c #398EE7",
"+	c #DEDEDF",
"@	c #DEDEDE",
"...........................",
"...........................",
"...........................",
"...........................",
"...........................",
"...........................",
"...........................",
"...........................",
"...........................",
"...........................",
"...........................",
"...........................",
"...........................",
"...........................",
"...........................",
"...........................",
"...........................",
"...........................",
"...........................",
"......+++++++@+++@+@@@.....",
"......+++++++@+++@+@@@.....",
"......+++++++@+++@+@@@.....",
"...........................",
"...........................",
"...........................",
"...........................",
"..........................."};
