/* XPM */
static char * minimizeufcs_xpm[] = {
"27 27 3 1",
" 	c None",
".	c #D3D3D3",
"+	c #939393",
"...........................",
"...........................",
"...........................",
"...........................",
"...........................",
"...........................",
"...........................",
"...........................",
"...........................",
"...........................",
"...........................",
"...........................",
"...........................",
"...........................",
"...........................",
"...........................",
"...........................",
"...........................",
"...........................",
"......++++++++++++++++.....",
"......++++++++++++++++.....",
"......++++++++++++++++.....",
"...........................",
"...........................",
"...........................",
"...........................",
"..........................."};
