/* XPM */
static char * stickpressed_xpm[] = {
"27 27 6 1",
" 	c None",
".	c #398EE7",
"+	c #DEDEDF",
"@	c #555351",
"#	c #DEDEDE",
"$	c #DDDEDE",
"...........................",
"...........................",
"...........................",
"...........................",
"...........................",
"...........................",
"...........................",
"...........................",
"...........................",
".............+.............",
"............+++............",
"...........++@##...........",
"..........##@@@$$..........",
".........##@@@@@##.........",
"..........##@@@$$..........",
"...........$$@$$...........",
"............$$$............",
".............$.............",
"...........................",
"...........................",
"...........................",
"...........................",
"...........................",
"...........................",
"...........................",
"...........................",
"..........................."};
