/* XPM */
static char * stickfcs_xpm[] = {
"27 27 5 1",
" 	c None",
".	c #398EE7",
"+	c #DEDEDF",
"@	c #DEDEDE",
"#	c #DDDEDE",
"...........................",
"...........................",
"...........................",
"...........................",
"...........................",
"...........................",
"...........................",
"...........................",
"...........................",
".............+.............",
"............+++............",
"...........++.@@...........",
"..........@@...##..........",
".........@@.....@@.........",
"..........@@...##..........",
"...........##.##...........",
"............###............",
".............#.............",
"...........................",
"...........................",
"...........................",
"...........................",
"...........................",
"...........................",
"...........................",
"...........................",
"..........................."};
