/* XPM */
static char * stuckfcs_xpm[] = {
"27 27 4 1",
" 	c None",
".	c #398EE7",
"+	c #DEDEDF",
"@	c #DF5004",
"...........................",
"...........................",
"...........................",
"...........................",
"...........................",
"...........................",
"...........................",
"...........................",
"...........................",
".............+.............",
"............+++............",
"...........++@++...........",
"..........++@@@++..........",
".........++@@@@@++.........",
"..........++@@@++..........",
"...........++@++...........",
"............+++............",
".............+.............",
"...........................",
"...........................",
"...........................",
"...........................",
"...........................",
"...........................",
"...........................",
"...........................",
"..........................."};
