/* XPM */
static char * tbarfcs_xpm[] = {
"26 22 25 1",
" 	c None",
".	c #36A2A2",
"+	c #36A3A3",
"@	c #38A9A9",
"#	c #38ABAB",
"$	c #38A8A8",
"%	c #3AAFAF",
"&	c #3BB1B1",
"*	c #3BB2B2",
"=	c #39AEAE",
"-	c #39ACAC",
";	c #37A6A6",
">	c #35A0A0",
",	c #359F9F",
"'	c #349D9D",
")	c #339C9C",
"!	c #329797",
"~	c #319696",
"{	c #319494",
"]	c #309393",
"^	c #309191",
"/	c #2F8E8E",
"(	c #2E8B8B",
"_	c #2E8A8A",
":	c #2D8888",
".+.+.+.+.+.+.............+",
"@#@#@#@@@@@$@$@$@$@$@$@@@@",
"%&%%&%&%%%%%%%%%%%%&%%%%%%",
"*%%*%*%&&%&%&&%&&%&%&%&%&%",
"==========================",
"-##@--@--@###@@@@@@@@$@$$$",
"$$$$$;;$$;$$;$$;;;$;$$;$$;",
"+++++++..++..+..+.........",
">..>>>>>>>>>>,,,,,,,,,,,,,",
"''))''))))))))))))))))))))",
"!!!!!!!!!!!!!!!!!!!!!!!!!!",
"!!!!!!!!!!!!!!!!!!!!!!!!!!",
"~~~~~~~~~~~~~~~~~~~~~~~~~~",
"{{{{{{{{{{{{{{{{{{{{{{{{{{",
"]]]]]]]]]]]]]]]]]]]]]]]]]]",
"^^^^^^^^^^^^^^^^^^^^^^^^^^",
"//////////////////////////",
"//////////////////////////",
"((((((((((((((((((((((((((",
"((((((((((((((((((((((((((",
"__________________________",
"::::::::::::::::::::::::::"};
