/* XPM */
static char * close_unfocused2_xpm[] = {
"21 21 5 1",
" 	c None",
".	c #000000",
"+	c #FFFFFF",
"@	c #020202",
"#	c #040404",
".....................",
".....................",
".....................",
".....................",
".....................",
".....................",
".....................",
".......+.....+.......",
"........+...+........",
".........+.+.........",
"..........+..........",
".........+.+.........",
"........+...+........",
".......+.....+.......",
"................@....",
"...............@@....",
"..............@@#....",
".....................",
".....................",
".....................",
"....................."};
