/* XPM */
static char * maximize_unfocused1_xpm[] = {
"21 21 3 1",
" 	c None",
".	c #000000",
"+	c #FFFFFF",
".....................",
".....................",
".....................",
".....................",
".....................",
".....................",
".....................",
".......+++++++.......",
".......+.....+.......",
".......+.....+.......",
".......+.....+.......",
".......+.....+.......",
".......+.....+.......",
".......+++++++.......",
".....................",
".....................",
".....................",
".....................",
".....................",
".....................",
"....................."};
